<svg xmlns="http://www.w3.org/2000/svg" viewBox="0 0 109.648 118.516">
  <path fill="#595858" d="M84.25 16.133c-1.019-.839-2.051-1.659-3.114-2.45l-.007.001-.001-.004c-1.07-.786-2.156-1.53-3.255-2.252-23.738-15.532-53.817-14.894-76.57-.139-1.618 1.056-1.768 3.424-.232 4.612.033.025.066.049.099.074.232.164.463.328.688.497 9.464 6.978 14.594 17.636 14.9 28.543.007.335.028.671.027 1.01.004.896.438 1.674 1.103 2.168l.024.015c.539.394 1.22.601 1.941.54.11-.009.227-.013.329-.02 8.369-.653 16.931 1.139 24.611 5.488L27.914 77.108l-24.425 33.13c-1.701 2.308-1.209 5.56 1.098 7.261 2.308 1.706 5.554 1.215 7.262-1.098l21.344-28.949 19.96-27.071c6.424 6.047 10.672 13.7 12.521 21.881.016.108.049.217.078.323.152.711.559 1.305 1.099 1.707.671.492 1.55.684 2.409.417.323-.1.645-.178.97-.268 10.51-2.932 22.206-1.185 31.671 5.792.232.167.457.341.683.513.017.015.034.028.051.043 1.561 1.151 3.825.414 4.352-1.462 7.425-26.118-.852-55.098-22.737-73.194zm-3.555 10.193c1.5 18.015-3.668 33.795-8.459 44.105-3.715-8.467-9.586-15.881-17.14-21.444-7.547-5.568-16.37-8.991-25.57-10.034 8.429-7.622 21.972-17.226 39.654-21.117 3.198-.705 6.528-1.219 9.996-1.5.749 3.391 1.247 6.726 1.519 9.99z"/>
</svg>
