<svg xmlns="http://www.w3.org/2000/svg" viewBox="0 0 118.807 108.73">
  	<path fill="#595858" d="M50.901 57.867H3.004C1.352 57.867 0 59.219 0 60.871v44.279c0 1.652 1.352 3.004 3.004 3.004H50.9c1.652 0 3.004-1.352 3.004-3.004V60.871c.001-1.652-1.351-3.004-3.003-3.004zm-15.319 38.69h-1.075c-.872 0-1.644-.564-1.909-1.395l-1.557-4.877c-.265-.831-1.037-1.395-1.909-1.395h-5.638c-.883 0-1.661.577-1.918 1.422l-1.464 4.823c-.256.845-1.035 1.422-1.918 1.422h-.865c-1.358 0-2.323-1.323-1.909-2.616l7.386-23.045c.266-.83 1.037-1.393 1.909-1.393h3.382c.868 0 1.638.559 1.906 1.385l7.486 23.045c.42 1.295-.546 2.624-1.907 2.624zm-7.958-18.063c-.52-1.644-.961-3.491-1.363-5.056h-.082c-.402 1.565-.801 3.451-1.284 5.056l-1.27 4.06c-.404 1.291.56 2.603 1.913 2.603h1.47c1.357 0 2.322-1.321 1.909-2.614l-1.293-4.049zm26.159-60.4c-.314-.047-.599-.086-.859-.118-1.078-.132-2.058.619-2.22 1.693l-.531 3.526c-.165 1.095.589 2.116 1.684 2.28l.519.078c3.374.508 5.516-.793 5.857-3.058.376-2.498-1.354-3.935-4.45-4.401zm-2.025 11.018l-.439-.066c-1.095-.165-2.115.589-2.28 1.684l-.735 4.883c-.162 1.076.561 2.093 1.634 2.272.205.034.421.068.649.103 3.135.472 6.09-.303 6.586-3.597.467-3.095-2.041-4.771-5.415-5.279zm66.997 67.164l-8.22-43.509c-.307-1.624-1.886-2.701-3.51-2.394l-31.048 5.866c.749-.45 1.306-1.207 1.44-2.134l6.328-43.824c.236-1.635-.909-3.167-2.544-3.403L33.796.031c-1.635-.236-3.167.909-3.403 2.544l-6.328 43.824c-.236 1.635.909 3.167 2.544 3.403l47.287 6.829-13.935 2.633c-1.624.307-2.701 1.886-2.394 3.51l8.22 43.509c.307 1.624 1.886 2.701 3.51 2.394l47.064-8.892c1.623-.306 2.701-1.886 2.394-3.509zM63.238 22.683c-.37 2.459-2.258 4.489-5.315 5.126l-.012.078c2.711 1.138 4.955 3.75 4.4 7.441-.359 2.382-1.67 4.091-3.409 5.129-2.157 1.381-5.418 1.743-10.301 1.008-1.638-.246-3.03-.53-4.141-.792-1.019-.241-1.684-1.216-1.528-2.251l3.435-22.826c.152-1.013 1.042-1.741 2.066-1.705 1.548.055 3.49.231 5.377.515 3.613.543 5.771 1.315 7.406 2.859 1.514 1.24 2.363 3.156 2.022 5.418zm35.99 68.15c-1.227.599-2.914 1.206-4.915 1.636-8.396 1.807-14.631-2.355-16.361-10.4-1.874-8.71 3.036-15.268 11.12-17.008 1.861-.401 3.461-.506 4.688-.464 1.111.038 1.961 1.007 1.897 2.117l-.006.101c-.062 1.081-.967 1.925-2.049 1.885-1.018-.037-2.18.044-3.471.321-5.377 1.157-8.536 5.366-7.168 11.725 1.249 5.806 5.467 8.799 11.273 7.55 1.143-.246 2.283-.631 3.258-1.078 1.025-.47 2.232-.03 2.688 1.002.434.987.015 2.14-.954 2.613z"/>
</svg>
