<svg xmlns="http://www.w3.org/2000/svg" viewBox="0 0 119.189 114.151">
    <path fill="#59595c" d="M15.11 70.799V46.181H5.039v24.618H15.11zm5.041 15.864V77.85c0-1.638-1.954-3.021-4.265-3.021H4.265C1.954 74.829 0 76.212 0 77.85v8.814c0 1.638 1.954 3.022 4.265 3.022h11.621c2.311-.001 4.265-1.385 4.265-3.023zM4.265 42.153h11.621c2.312 0 4.265-1.384 4.265-3.022v-8.813c0-1.638-1.954-3.021-4.265-3.021H4.265C1.954 27.297 0 28.68 0 30.318v8.813c0 1.638 1.954 3.022 4.265 3.022zM100.214 0h-76.2C13.551 0 5.039 8.513 5.039 18.976v4.292H15.11v-4.292c0-4.91 3.994-8.903 8.903-8.903h76.201c4.909 0 8.902 3.993 8.902 8.903v76.201c0 4.909-3.993 8.902-8.902 8.902h-76.2c-4.909 0-8.903-3.993-8.903-8.902v-1.463H5.039v1.463c0 10.463 8.512 18.974 18.975 18.974h76.201c10.463 0 18.975-8.512 18.975-18.974V18.976C119.189 8.513 110.677 0 100.214 0zm3.529 68.238V48.856c0-2.033-1.647-3.681-3.68-3.681-2.034 0-3.681 1.648-3.681 3.681v19.383c0 2.032 1.647 3.68 3.681 3.68 2.033-.001 3.68-1.648 3.68-3.681zM88.635 56.457c0-15.708-12.779-28.486-28.486-28.486S31.664 40.75 31.664 56.457s12.778 28.485 28.485 28.485c15.707 0 28.486-12.778 28.486-28.485zM61.156 79.881l.001-6.545c4.342-.208 8.246-2.067 11.089-4.982l4.484 4.669c-4.026 4.029-9.506 6.6-15.574 6.858zm16.935-8.348l-4.53-4.717c1.996-2.618 3.227-5.841 3.374-9.352l6.637.001c-.226 5.344-2.25 10.229-5.481 14.068zm5.482-16.083h-6.668c-.233-2.99-1.248-5.759-2.855-8.095l4.852-4.959c2.759 3.669 4.463 8.171 4.671 13.054zM61.157 33.033c6.527.278 12.37 3.234 16.457 7.798l-4.823 4.931c-2.878-3.253-7.003-5.36-11.634-5.582v-7.147zm-2.015 0V40.2c-3.96.286-7.53 1.952-10.237 4.529l-5.004-5.156c3.993-3.843 9.336-6.289 15.241-6.54zM42.51 41.032l5.011 5.163c-2.106 2.555-3.449 5.755-3.722 9.255h-7.073c.234-5.508 2.378-10.527 5.784-14.418zm-5.784 16.432h7.043c.158 3.763 1.549 7.205 3.805 9.915l-5.162 4.388c-3.349-3.874-5.455-8.848-5.686-14.303zm22.416 22.417c-5.958-.253-11.345-2.74-15.348-6.643l5.171-4.397c2.7 2.545 6.246 4.191 10.177 4.475v6.565zm-.186-29.393v-4.833c0-.89.721-1.611 1.612-1.611.888 0 1.608.721 1.608 1.611v4.833c0 .888-.72 1.61-1.608 1.61-.89 0-1.612-.722-1.612-1.61z"/>
</svg>
